<svg id="logo-svg" xmlns="http://www.w3.org/2000/svg"  style=" font-weight: bold" width="171" height="36.649" >
<g fill="#000000">
<path d="M114.324 16.876a.79.79 0 0 0-.187.025c-2.021.01-3.691.554-4.96 1.618a4.743 4.743 0 0 0-.966 1.093c-.438.657-.659 1.317-.659 1.964 0 .613.206 1.111.612 1.48.396.361.905.544 1.516.544.45 0 .912-.106 1.375-.316 1.016-.465 1.889-1.281 2.6-2.432v2.017c0 .376.245.626.61.626.366 0 .611-.25.611-.626v-5.374c.001-.426-.275-.619-.552-.619zm-5.339 5.302c-.152-.137-.227-.333-.227-.602 0-.725.406-1.435 1.205-2.111.959-.8 2.138-1.245 3.511-1.328a7.96 7.96 0 0 1-.652 1.714c-.584 1.095-1.357 1.878-2.287 2.326-.638.302-1.236.281-1.55.001zM124.956 17.305a1.98 1.98 0 0 0-1.222-.388c-.668 0-1.454.385-2.388 1.171-.191-1.005-.9-1.171-1.349-1.171-.621 0-1.32.308-2.087.921a.597.597 0 0 0-.222.464c0 .374.252.625.626.625a.624.624 0 0 0 .399-.144c.666-.545 1.049-.659 1.253-.659.056 0 .206 0 .206.534v4.244c0 .366.245.61.613.61.364 0 .609-.244.609-.61v-3.186c1.265-1.293 1.988-1.583 2.368-1.593.188 0 .34.043.46.133.148.111.217.252.224.458.01.273-.058.616-.66.849a.59.59 0 0 0-.381.568c0 .588.531.758.868.572a2.324 2.324 0 0 0 1.013-.85c.255-.385.379-.792.365-1.203a1.666 1.666 0 0 0-.695-1.345zM136.909 16.872c-.479 0-1.002.13-1.555.384a7.327 7.327 0 0 0-1.118.653c-.25-.674-.777-1.037-1.526-1.037-.746 0-1.579.347-2.531 1.054v-.442c0-.365-.243-.612-.609-.612-.374 0-.626.246-.626.612v5.404c0 .365.252.61.626.61.366 0 .609-.245.609-.61v-3.405c.99-.828 1.784-1.286 2.355-1.362.048-.006.094-.009.136-.009.176 0 .502 0 .502.842v3.934c0 .365.251.61.626.61.366 0 .61-.245.61-.61V19.31c.319-.253.632-.468.932-.644.105-.062.275-.145.503-.249.405-.185.759-.279 1.051-.279.376 0 .505.131.505.52v4.212c0 .376.252.626.627.626.366 0 .612-.252.612-.627v-4.234c0-1.136-.616-1.763-1.729-1.763zM145.993 16.872h-.047c-.982 0-1.808.327-2.452.971a3.305 3.305 0 0 0-1.004 2.255c-.055.994.271 1.832.965 2.488a3.536 3.536 0 0 0 2.456.987h.044c.853 0 1.616-.315 2.271-.936.71-.666 1.067-1.499 1.067-2.474 0-.795-.29-1.529-.869-2.186-.645-.711-1.46-1.082-2.431-1.105zm-.038 5.493l-.04-.001a2.233 2.233 0 0 1-1.598-.634c-.442-.418-.645-.93-.622-1.573a2.056 2.056 0 0 1 .655-1.471c.424-.409.958-.607 1.637-.609.6.01 1.093.241 1.512.711.385.429.573.878.573 1.374 0 .643-.225 1.167-.689 1.606-.417.402-.884.597-1.428.597zM156.781 16.857c-.804 0-1.612.3-2.411.895v-.282c0-.366-.245-.613-.609-.613-.375 0-.627.246-.627.611v5.431c0 .366.252.613.627.613.364 0 .609-.244.609-.61v-3.527c.847-.86 1.657-1.297 2.411-1.297.299 0 .527.083.7.252.171.167.253.401.253.716v3.856c0 .366.246.61.61.61.376 0 .627-.244.627-.61v-3.856c0-.658-.21-1.194-.622-1.593-.407-.395-.934-.596-1.568-.596zM168.617 20.95l-.03.001v-3.454c0-.365-.252-.611-.626-.611-.365 0-.612.246-.612.611v4.23c-1.047.635-1.929.824-2.466.505a.81.81 0 0 1-.386-.412c-.057-.138-.123-.427-.123-1.015v-3.308c0-.366-.244-.612-.611-.612-.364 0-.609.246-.609.612v3.306c0 .69.079 1.2.241 1.555.172.374.466.687.88.936.759.447 1.835.407 3.074-.169v2.41c0 .729-.297.877-.742.877-.374 0-.627.246-.627.612 0 .364.253.611.627.611.467 0 .878-.13 1.218-.385.506-.371.763-.948.763-1.715v-3.162c.228-.17.369-.279.43-.328a.62.62 0 0 0 .226-.47c-.002-.372-.253-.625-.627-.625zM103.933 9.866c-.379 0-.634.254-.634.635v7.705h-7.35V13.31c0-.38-.256-.635-.635-.635-.38 0-.634.255-.634.635v4.896h-3.741c-.379 0-.633.26-.633.65 0 .379.254.634.633.634h3.741v3.167c0 .379.254.635.634.635.379 0 .635-.255.635-.635V19.49h7.35v7.847c0 .38.255.635.634.635.388 0 .651-.255.651-.635V10.501c0-.38-.264-.635-.651-.635z"></path>
</g>
<path fill="#000000" d="M85.862 23.223l-.585-.713c.106-.182.193-.377.254-.582.072-.239.117-.976-.238-.976-.357 0-.329.55-.357.7a1.365 1.365 0 0 1-.122.345l-1.272-1.51c.358-.21.611-.406.77-.593.206-.24.31-.528.31-.858 0-.356-.127-.652-.377-.879-.249-.227-.56-.34-.929-.34-.386 0-.715.108-.977.324-.266.22-.401.521-.401.895 0 .237.063.478.188.712.084.161.208.341.37.536a2.88 2.88 0 0 0-.894.679 1.733 1.733 0 0 0-.419 1.129c0 .531.188.972.557 1.313.352.323.8.487 1.333.487a2.54 2.54 0 0 0 1.047-.204c.257-.116.499-.296.72-.533l.45.547a.38.38 0 0 0 .539.054c.16-.134.167-.369.033-.533zm-3.071-4.612c.12-.116.284-.172.499-.172.192 0 .341.059.457.178a.601.601 0 0 1 .172.435.722.722 0 0 1-.205.499c-.116.126-.31.27-.578.429a3.657 3.657 0 0 1-.368-.515c-.103-.175-.154-.323-.154-.438a.55.55 0 0 1 .177-.416zm1.075 4.461a1.481 1.481 0 0 1-.757.199c-.351 0-.632-.101-.859-.31-.227-.206-.336-.477-.336-.831 0-.283.1-.551.294-.795.186-.232.421-.42.701-.559l1.534 1.82a2.282 2.282 0 0 1-.577.476z"></path>
<g fill="#000000">
<path d="M23.982 20h-.011c-1.442 0-2.81.208-4.106.296L20.87 3.101l-.001-.02a.53.53 0 0 0-.125-.324.495.495 0 0 0-.34-.153l-.063.005a.418.418 0 0 0-.288.115.455.455 0 0 0-.166.341l-1.013 17.333c-4.126.271-7.703.547-10.291.837L9 10.407v-.063c0-.115.176-.208.099-.3-.097-.09-.097-.15-.232-.155l-.01.002a.376.376 0 0 0-.272.115.453.453 0 0 0-.153.342l-.641 11.006a32.4 32.4 0 0 0-1.207.158c-1.427.196-2.477.391-3.151.593-.3.084-.7.198-.916.331-.223.143-.517.336-.517.578v.021c0 .283.286.498.553.635.266.147.635.252.961.303.033.01.11.02.142.018a.557.557 0 0 0 .328-.127.533.533 0 0 0 .187-.425.558.558 0 0 0-.058-.217.6.6 0 0 0-.269-.21c.507-.165 1.757-.377 3.747-.645.053-.013-.031-.015.02-.017L7 30.534v.031c0 .126.187.229.263.32.088.102.272.16.41.167.011.009.067.009.077.008a.541.541 0 0 0 .347-.137.48.48 0 0 0 .165-.331l.474-8.341c2.575-.289 5.929-.564 10.077-.847l-.843 13.304.003.062c.005.116.04.209.116.29.087.102.205.16.34.176l.054-.002a.465.465 0 0 0 .32-.137.511.511 0 0 0 .155-.33l.849-13.43c1.327-.078 2.738-.168 4.221-.253a.53.53 0 0 0 .339-.168.564.564 0 0 0 .134-.362c-.015-.134-.061-.293-.16-.385-.096-.09-.223-.169-.359-.169zM55.279 23.949h-.011zM75.682 18.76a.466.466 0 0 0-.349-.134.505.505 0 0 0-.351.159c-1.272 1.363-2.452 2.348-3.529 2.962-1.078.613-1.978.938-2.679.963a2.324 2.324 0 0 1-.618-.052c-.656-.154-1.102-.641-1.331-1.471-.42-1.544-.938-2.574-1.553-3.086-.616-.512-1.189-.764-1.723-.745a1.511 1.511 0 0 0-.301.042c-.604.114-1.115.479-1.534 1.069l-.019-.533a.506.506 0 0 0-.158-.351.446.446 0 0 0-.352-.134.486.486 0 0 0-.35.148.497.497 0 0 0-.133.361c.018.512.096.951.139 1.316.045.366.159.679.159.939v.042c0 .093-.023.198-.009.291-.027.153-.075.313-.092.475-.472.559-.905.724-1.271.889a11.514 11.514 0 0 1-4.377 1.045c-1.861.065-3.267-.21-4.221-.815-.589-.387-.965-.897-1.101-1.521l.187-.007c1.747-.062 3.109-.297 4.099-.72 1.021-.424 1.576-1.02 1.654-1.786.008-.063.006-.126.006-.179a1.427 1.427 0 0 0-.401-.927c-.51-.537-1.378-.778-2.623-.734a5.35 5.35 0 0 0-1.92.424 3.33 3.33 0 0 0-1.506 1.236c-.375.546-.555 1.253-.55 2.116-1.098 1.162-1.29 1.431-2.16 1.633l-.146.006c-1.098.038-1.8-.251-2.083-.858.811-1.379 1.2-2.472 1.172-3.288-.009-.26-.058-.437-.155-.55a.676.676 0 0 0-.28-.199.486.486 0 0 0-.221-.034c-.042.002-.095.004-.146.016-.146.037-.309.137-.481.32-.302.336-.548.794-.747 1.377-.2.593-.294 1.152-.277 1.664.006.178.023.365.05.543.001.01.001.01-.009.021-.01.01-.01.021-.02.032-.796 1.18-1.125 1.895-1.24 1.831-.117-.064-.149-.89-.876-2.779a22.026 22.026 0 0 1-.887-3.173.48.48 0 0 0-.188-.308.543.543 0 0 0-.328-.093l-.063.002a.53.53 0 0 0-.307.199.45.45 0 0 0-.104.318l.002.063c.013.063.086.416.237 1.06.098.401.246.839.405 1.326a.556.556 0 0 0-.053.065c-1.356 2.257-2.644 3.413-3.867 3.456-.597.021-1.063-.162-1.424-.547a2.973 2.973 0 0 1-.628-1.161c-.141-.457-.228-.85-.251-1.185-.021-.334-.041-.596-.048-.783-.006-.188-.013-.355-.006-.513.009-.305.014-.462.024-.473l-.002-.063a.506.506 0 0 0-.508-.484.475.475 0 0 0-.259.093.472.472 0 0 0-.21.3c-.062.286-.155.635-.287 1.047-.131.413-.295.848-.499 1.306s-.44.884-.708 1.282a4.39 4.39 0 0 1-.908.995 1.876 1.876 0 0 1-1.116.415c-.806.028-1.462-.189-1.949-.642-.326-.325-.498-.727-.515-1.218l-.004-.094c.024-1.394.824-2.479 2.408-3.268.7-.34 1.424-.585 2.162-.747.749-.162 1.363-.247 1.865-.265a.467.467 0 0 0 .339-.158.49.49 0 0 0-.025-.701.474.474 0 0 0-.35-.134c-.576.021-1.263.119-2.063.282-.8.175-1.585.454-2.357.827-1.925.979-2.912 2.354-2.954 4.135l.005.146c.027.753.3 1.383.811 1.888.703.656 1.594.959 2.67.922a2.75 2.75 0 0 0 1.584-.538c.47-.341.864-.753 1.202-1.257a9.337 9.337 0 0 0 .846-1.539c.088.406.206.811.377 1.191.17.393.393.74.665 1.035.575.598 1.298.885 2.177.854l-.03.031c1.436-.05 2.862-1.141 4.263-3.263.597 2.108 1.355 3.677 1.639 3.688.297.013.96-1.15 1.849-2.375.22.296.552.526 1.01.708.455.184 1.055.266 1.797.24l.074-.003c1.068-.251 1.434-.506 2.316-1.415.25.686.716 1.255 1.404 1.714 1.124.725 2.716 1.056 4.785.984 1.671-.06 3.234-.49 4.77-1.143a4.76 4.76 0 0 0 .793-.405c.011.258.031.523.069.796.015.124.06.913.157.993.097.081.204.81.329.81h.032c.115 0 .208-.733.298-.812.092-.077.141-.525.156-.651.075-.61.121-1.223.123-1.484a9.216 9.216 0 0 0 0-.673 8.643 8.643 0 0 0-.057-.763c.081-.391.174-.729.281-.974.319-.734.723-1.167 1.222-1.278a.664.664 0 0 1 .136-.021c.366-.013.814.189 1.217.625.447.488.2 1.31 1.2 2.461v.009c0 .736.482 1.259.87 1.581.389.321.734.517 1.103.588.275.063.556.084.859.074l-.037.011c.847-.03 1.805-.336 2.875-.928 1.365-.771 2.707-1.866 4.049-3.305a.508.508 0 0 0-.037-.7zm-25.425-.341c.24-.323.514-.552.834-.72a3.53 3.53 0 0 1 .961-.337c.321-.065.582-.095.802-.102.617-.022 1.058.014 1.344.119s.458.204.534.296c.065.071.11.142.123.205.022.062.023.104.026.135-.04.389-.466.739-1.283 1.05-.827.312-2.077.502-3.739.561l-.042.022c.057-.503.209-.917.44-1.229z"></path>
</g>
</svg>